<?xml version="1.0" standalone="no"?><!DOCTYPE svg PUBLIC "-//W3C//DTD SVG 1.1//EN" "http://www.w3.org/Graphics/SVG/1.1/DTD/svg11.dtd"><svg t="1754226009507" class="icon" viewBox="0 0 1024 1024" version="1.1" xmlns="http://www.w3.org/2000/svg" p-id="1626" xmlns:xlink="http://www.w3.org/1999/xlink" width="200" height="200"><path d="M718.77 104.28c-135.65 65.79-247.92 140.41-344.25 256.38l-2.93 3.52c-32.18 38.74-22.79 96.95 19.92 123.63a1256.635 1256.635 0 0 0 414.62 165.45c49.34 10.05 96.23-25.7 99.56-75.95l0.3-4.57c10-150.42-20.05-281.85-73.16-422.95-17.22-45.78-70.07-66.87-114.08-45.52h0.02z" fill="#FFAEAE" p-id="1627"></path><path d="M512.08 464.92l-94.66-75.36 31.14-39.12 63.52 50.57 63.51-50.57 31.14 39.12-94.65 75.36z" p-id="1628"></path><path d="M512 837.27c-46.02 0-90.68-9.02-132.74-26.81-40.61-17.18-77.07-41.76-108.38-73.07-31.31-31.31-55.89-67.77-73.07-108.38C180.02 586.95 171 542.29 171 496.27s9.02-90.68 26.81-132.74c17.18-40.61 41.76-77.07 73.07-108.38 31.31-31.31 67.77-55.89 108.38-73.07 42.06-17.79 86.72-26.81 132.74-26.81s90.68 9.02 132.74 26.81c40.61 17.18 77.07 41.76 108.38 73.07 31.31 31.31 55.89 67.77 73.07 108.38C843.98 405.59 853 450.25 853 496.27s-9.02 90.68-26.81 132.74c-17.18 40.61-41.76 77.07-73.07 108.38-31.31 31.31-67.77 55.89-108.38 73.07-42.06 17.79-86.72 26.81-132.74 26.81z m0-632c-77.73 0-150.81 30.27-205.77 85.23C251.27 345.46 221 418.54 221 496.27s30.27 150.81 85.23 205.77C361.19 757 434.27 787.27 512 787.27S662.81 757 717.77 702.04C772.73 647.08 803 574 803 496.27s-30.27-150.81-85.23-205.77c-54.96-54.96-128.04-85.23-205.77-85.23z" p-id="1629"></path><path d="M487.08 477.97h50v173.96h-50zM816.06 343.2l-35.36-35.36c10.58-10.58 16.41-24.65 16.41-39.62s-5.83-29.04-16.41-39.62c-21.85-21.85-57.39-21.85-79.24 0l-35.36-35.36c41.34-41.34 108.61-41.34 149.95 0 20.03 20.03 31.06 46.65 31.06 74.98s-11.03 54.95-31.06 74.98zM207.24 343.2c-20.03-20.03-31.06-46.65-31.06-74.98s11.03-54.95 31.06-74.97c20.03-20.03 46.65-31.06 74.97-31.06s54.95 11.03 74.98 31.06l-35.36 35.36c-10.58-10.58-24.65-16.41-39.62-16.41s-29.04 5.83-39.62 16.41c-10.58 10.58-16.41 24.65-16.41 39.62s5.83 29.04 16.41 39.62l-35.36 35.36zM663.763 781.439l39.89-30.147 55.945 74.028-39.89 30.146zM264.673 825.177l55.946-74.027 39.89 30.146-55.946 74.028z" p-id="1630"></path><path d="M399.8 434.85h224.55v50H399.8zM399.8 528.84h224.55v50H399.8z" p-id="1631"></path></svg>