<?xml version="1.0" standalone="no"?><!DOCTYPE svg PUBLIC "-//W3C//DTD SVG 1.1//EN" "http://www.w3.org/Graphics/SVG/1.1/DTD/svg11.dtd"><svg t="1754226006466" class="icon" viewBox="0 0 1024 1024" version="1.1" xmlns="http://www.w3.org/2000/svg" p-id="1472" xmlns:xlink="http://www.w3.org/1999/xlink" width="200" height="200"><path d="M444.5 411.5m-248.5 0a248.5 248.5 0 1 0 497 0 248.5 248.5 0 1 0-497 0Z" fill="#FFAEAE" p-id="1473"></path><path d="M501.16 755.33H265V358.98h236.16v396.35z m-186.16-50h136.16V408.98H315v296.35z" p-id="1474"></path><path d="M358.08 230.12h50v153.61h-50zM358.08 730.16h50v153.61h-50zM839.94 701.21H603.78V304.86h236.16v396.35z m-186.17-50h136.16V354.86H653.77v296.35z" p-id="1475"></path><path d="M696.85 176h50v153.61h-50zM696.85 676.04h50v153.61h-50z" p-id="1476"></path></svg>