<?xml version="1.0" standalone="no"?><!DOCTYPE svg PUBLIC "-//W3C//DTD SVG 1.1//EN" "http://www.w3.org/Graphics/SVG/1.1/DTD/svg11.dtd"><svg t="1754226003170" class="icon" viewBox="0 0 1024 1024" version="1.1" xmlns="http://www.w3.org/2000/svg" p-id="1317" xmlns:xlink="http://www.w3.org/1999/xlink" width="200" height="200"><path d="M416.02 543.43m-250.14 0a250.14 250.14 0 1 0 500.28 0 250.14 250.14 0 1 0-500.28 0Z" fill="#FFAEAE" p-id="1318"></path><path d="M869 877H242V205h426.07L869 426.35V877z m-577-50h527V445.65L645.93 255H292v572z" p-id="1319"></path><path d="M393.73 158h50v150.26h-50zM488.73 158h50v150.26h-50zM368.38 441.11h52.1v50h-52.1zM475.11 441.11H739v50H475.11zM368.38 542.19h52.1v50h-52.1zM475.11 542.19H739v50H475.11zM368.38 643.28h52.1v50h-52.1zM475.11 643.28H739v50H475.11z" p-id="1320"></path></svg>