<?xml version="1.0" standalone="no"?><!DOCTYPE svg PUBLIC "-//W3C//DTD SVG 1.1//EN" "http://www.w3.org/Graphics/SVG/1.1/DTD/svg11.dtd"><svg t="1754225999457" class="icon" viewBox="0 0 1024 1024" version="1.1" xmlns="http://www.w3.org/2000/svg" p-id="1163" xmlns:xlink="http://www.w3.org/1999/xlink" width="200" height="200"><path d="M608.8 528.74l4.97-14.58a607.657 607.657 0 0 0 32.22-178.8l0.43-15.4a94.293 94.293 0 0 0-23.27-64.72l-10.14-11.59a608.222 608.222 0 0 0-138.74-117.31l-13.12-8.08a94.214 94.214 0 0 0-67.69-12.2l-15.11 2.99a607.854 607.854 0 0 0-170.96 61.5l-13.55 7.32a94.196 94.196 0 0 0-44.4 52.52l-4.97 14.58a607.657 607.657 0 0 0-32.22 178.8l-0.43 15.4a94.293 94.293 0 0 0 23.27 64.72l10.14 11.59a607.97 607.97 0 0 0 138.74 117.31l13.12 8.08a94.214 94.214 0 0 0 67.69 12.2l15.11-2.99a607.854 607.854 0 0 0 170.96-61.5l13.55-7.32a94.196 94.196 0 0 0 44.4-52.52z" fill="#FFAEAE" p-id="1164"></path><path d="M503.08 486.92l-94.66-75.36 31.14-39.12 63.52 50.57 63.51-50.57 31.14 39.12-94.65 75.36zM478.08 499.97h50v173.96h-50z" p-id="1165"></path><path d="M390.8 456.85h224.55v50H390.8zM390.8 550.84h224.55v50H390.8z" p-id="1166"></path><path d="M809 869H581.72l-4.73-18.94C569.48 820 542.55 799 511.51 799s-57.97 21-65.48 51.06L441.3 869H214.02V196H441.3l4.73 18.94C453.54 245 480.47 266 511.51 266s57.97-21 65.48-51.06l4.73-18.94H809v673z m-189.98-50H759V246H619.02c-18.5 42.04-60.27 70-107.52 70s-89.02-27.96-107.52-70H264v573h139.98c18.5-42.04 60.27-70 107.52-70s89.02 27.96 107.52 70z" p-id="1167"></path></svg>